<svg version="1.1" id="Layer_1" xmlns="http://www.w3.org/2000/svg" xmlns:xlink="http://www.w3.org/1999/xlink" x="0px" y="0px"
	 width="100%" viewBox="0 0 1024 1024" enable-background="new 0 0 1024 1024" xml:space="preserve">
<path fill="#000000" opacity="1.000000" stroke="none" 
	d="
M621.625732,498.686981 
	C629.231201,489.784393 638.297852,483.895935 649.496216,481.589355 
	C652.656250,480.938446 653.800720,479.347839 653.769775,476.072571 
	C653.633057,461.577820 653.763000,447.080811 653.719299,432.584839 
	C653.710022,429.507385 653.699219,426.962738 658.023254,427.099579 
	C666.123535,427.355927 666.202576,427.242706 666.203491,432.811615 
	C666.211182,479.465881 666.212952,526.120178 666.201294,572.774414 
	C666.199646,579.332336 666.069031,579.602478 659.438232,579.282898 
	C639.500183,578.321899 624.124329,569.565186 615.595337,551.238281 
	C607.077087,532.934265 609.407776,515.274902 621.625732,498.686981 
M640.421204,561.119446 
	C642.639038,562.248657 644.783997,563.562927 647.089050,564.470764 
	C652.856323,566.741882 653.681763,566.144653 653.686707,559.991760 
	C653.702698,540.194519 653.704224,520.397217 653.691528,500.599976 
	C653.687073,493.704926 652.763062,493.057861 646.195007,495.771820 
	C633.487427,501.022705 625.627991,510.606079 623.572693,524.034668 
	C621.222229,539.391113 627.193665,551.678345 640.421204,561.119446 
z"/>
<path fill="#000000" opacity="1.000000" stroke="none" 
	d="
M190.719025,548.239014 
	C166.594162,534.018921 137.429123,548.642090 134.291306,576.185669 
	C133.743958,580.990234 132.292114,581.670837 125.637291,581.168091 
	C121.269821,580.838135 121.597321,577.996826 121.913414,575.111450 
	C124.292809,553.392151 138.160095,537.013733 158.809235,531.462524 
	C178.701538,526.114868 199.141830,533.680847 212.052826,551.162231 
	C212.734192,552.084839 213.472427,552.965393 214.187561,553.869751 
	C216.369766,553.323181 217.032349,551.452332 218.117432,550.094910 
	C231.291489,533.613953 248.322083,526.564697 268.946808,531.211548 
	C289.279144,535.792542 301.969330,548.969971 306.789856,569.409119 
	C307.167908,571.012024 307.243011,572.699280 307.335876,574.354248 
	C307.710938,581.035583 307.597748,580.799194 301.092041,581.159790 
	C296.102783,581.436340 295.412048,578.661560 294.899353,574.835266 
	C293.292236,562.840698 287.201385,553.685425 276.742157,547.599731 
	C253.810806,534.257202 225.222534,548.340454 221.345276,574.824219 
	C220.522064,580.447144 215.316528,583.151428 210.309875,580.659485 
	C208.355896,579.687073 208.683105,577.893066 208.466660,576.343384 
	C206.802887,564.431274 201.002655,555.134155 190.719025,548.239014 
z"/>
<path fill="#000000" opacity="1.000000" stroke="none" 
	d="
M891.543457,537.369141 
	C881.438110,537.348206 871.775146,537.349731 862.112427,537.306030 
	C856.259033,537.279541 855.644836,536.538025 856.029480,530.554565 
	C857.141052,513.265320 866.266846,501.051147 880.476624,492.138611 
	C888.649719,487.012390 897.663635,484.218384 907.228333,483.145447 
	C909.740784,482.863556 912.293091,482.245209 912.906250,486.008118 
	C913.835266,491.709747 912.695923,495.046051 908.954285,495.515350 
	C898.429688,496.835358 888.989807,500.542175 880.897461,507.485504 
	C877.190308,510.666351 874.182312,514.425537 871.887573,518.723267 
	C869.175232,523.803101 869.785461,524.873779 875.402405,524.888672 
	C885.398376,524.915283 895.397339,524.996277 905.389099,524.778442 
	C909.266113,524.694031 910.629333,525.848083 910.487305,529.905273 
	C909.859314,547.846436 900.986450,560.779358 886.249207,569.985291 
	C877.556763,575.415161 868.035156,578.867310 857.631287,579.530945 
	C854.791382,579.712097 853.816284,578.770203 853.643005,575.972046 
	C853.151001,568.026062 853.199768,568.080322 861.162292,566.611450 
	C873.216553,564.387817 883.348267,558.635681 891.119446,549.061462 
	C893.630859,545.967346 895.655396,542.524719 896.304993,538.620728 
	C895.028809,536.889282 893.395203,537.577454 891.543457,537.369141 
z"/>
<path fill="#000000" opacity="1.000000" stroke="none" 
	d="
M490.471344,571.519775 
	C490.146362,573.060425 489.903107,574.199585 489.666260,575.340088 
	C488.587494,580.534241 484.618896,582.619629 479.678162,580.739685 
	C477.015228,579.726440 477.586792,577.532104 477.739105,575.682739 
	C479.085754,559.332031 486.562683,546.494873 500.470215,537.766541 
	C531.366089,518.376343 571.061279,536.954834 576.102478,573.035095 
	C577.100525,580.178162 575.918945,581.404175 568.982178,581.052795 
	C566.165833,580.910156 564.793030,579.876587 564.404602,577.004028 
	C563.596130,571.024536 562.102051,565.207825 558.607422,560.149292 
	C550.180359,547.951111 538.595337,541.611938 523.717102,542.966736 
	C506.311646,544.551575 495.750458,554.829712 490.471344,571.519775 
z"/>
<path fill="#000000" opacity="1.000000" stroke="none" 
	d="
M418.184998,573.344238 
	C385.958099,590.446838 348.705353,570.673767 344.959869,534.801392 
	C344.721436,532.517822 344.279633,529.352417 347.826660,529.835938 
	C351.121826,530.285156 356.254852,526.586609 357.391876,533.338745 
	C359.611542,546.520508 365.586670,557.165283 377.972107,563.431091 
	C399.850861,574.499573 427.506317,559.863159 430.718933,535.495850 
	C431.477631,529.741272 436.510101,526.922913 441.625061,529.540344 
	C444.600830,531.063049 443.452118,534.050903 443.118408,536.237549 
	C440.933441,550.553589 434.198395,562.235657 422.286774,570.726501 
	C421.067566,571.595581 419.772247,572.357849 418.184998,573.344238 
z"/>
<path fill="#000000" opacity="1.000000" stroke="none" 
	d="
M797.453735,563.431396 
	C774.043823,586.842102 737.919067,584.416138 720.447144,558.517151 
	C715.709778,551.494995 712.934204,543.695068 711.877808,535.331177 
	C711.598206,533.117432 710.588074,530.203918 714.647583,529.675537 
	C721.429810,528.792725 723.576355,529.645508 724.241211,534.064026 
	C726.549377,549.403076 734.847717,560.236816 749.428406,565.382446 
	C771.162598,573.052551 794.516785,558.001526 797.483826,534.524597 
	C798.110107,529.569092 798.988831,529.330200 807.151672,529.732300 
	C811.626465,529.952759 810.013855,533.475830 809.750916,535.806091 
	C808.583679,546.152405 804.913452,555.458191 797.453735,563.431396 
z"/>
</svg>